<?xml version="1.0" encoding="utf-8"?>
<!-- Generator: Adobe Illustrator 16.0.0, SVG Export Plug-In . SVG Version: 6.00 Build 0)  -->
<!DOCTYPE svg PUBLIC "-//W3C//DTD SVG 1.1//EN" "http://www.w3.org/Graphics/SVG/1.1/DTD/svg11.dtd">
<svg version="1.1" id="Layer_1" xmlns="http://www.w3.org/2000/svg" xmlns:xlink="http://www.w3.org/1999/xlink" x="0px" y="0px"
	 width="560px" height="560px" viewBox="0 0 560 560" enable-background="new 0 0 560 560" xml:space="preserve">
<g>
	<g>
		<g>
			
				<image overflow="visible" width="548" height="554" xlink:href="682BC6976AF60DF3.png"  transform="matrix(1 0 0 1 6.1562 2.0537)">
			</image>
			<g>
				<path fill="#FFFFFF" d="M364.893,97.592c-4.876,0-9.702,0.2-14.479,0.582c-31.528-51.776-88.504-86.35-153.557-86.35
					c-99.223,0-179.658,80.436-179.658,179.658c0,31.136,7.925,60.421,21.861,85.953c-15.022,26.256-23.611,56.667-23.611,89.085
					c0,99.22,80.435,179.657,179.658,179.657c66.497,0,124.549-36.127,155.616-89.823c4.675,0.364,9.401,0.555,14.171,0.555
					c99.224,0,179.658-80.438,179.658-179.658C544.551,178.027,464.116,97.592,364.893,97.592z"/>
			</g>
		</g>
		<g>
			<g>
				<path fill="#17AE4B" d="M367.014,121.855c-9.152,0-18.117,0.792-26.841,2.295c9.59,20.306,14.961,42.994,14.961,66.94
					c0,33.074-10.239,63.752-27.707,89.056c16.519,24.854,26.151,54.682,26.151,86.763c0,23.708-5.268,46.184-14.677,66.333
					c9.121,1.649,18.516,2.515,28.112,2.515c86.679,0,156.943-70.27,156.943-156.951
					C523.957,192.124,453.692,121.855,367.014,121.855z"/>
				<path fill="#2E76BB" d="M225.022,345.746c-8.721,1.502-17.687,2.295-26.836,2.295c-54.6,0-102.681-27.886-130.796-70.185
					c-17.467,25.303-27.706,55.981-27.706,89.053c0,86.683,70.267,156.951,156.948,156.951c62.975,0,117.273-37.093,142.27-90.618
					C288.394,424.107,246.304,390.807,225.022,345.746z"/>
				<path fill="#EC1C24" d="M196.632,209.959c9.595,0,18.988,0.865,28.107,2.514c21.365-45.747,64.134-79.482,115.434-88.323
					c-25.125-53.197-79.252-90.01-141.987-90.01c-86.683,0-156.95,70.269-156.95,156.951c0,32.082,9.633,61.91,26.154,86.765
					C95.704,236.843,143.025,209.959,196.632,209.959z"/>
				<path fill="#D4D4D3" d="M224.739,212.473c-9.412,20.15-14.678,42.625-14.678,66.333c0,23.947,5.372,46.634,14.961,66.94
					c42.372-7.301,78.923-31.587,102.404-65.6C304.251,245.279,267.514,220.207,224.739,212.473z"/>
			</g>
			<g>
				<path fill="#D2A0C8" d="M224.739,212.473c-0.25-0.046-18.143-2.726-28.937-2.511c-31.561,0.628-55.183,8.141-78.227,21.354
					c-19.95,11.659-37.101,27.586-50.187,46.541c28.116,42.299,76.196,70.185,130.796,70.185c9.15,0,18.116-0.793,26.836-2.295
					c-9.589-20.306-14.961-42.993-14.961-66.94C210.061,255.098,215.327,232.624,224.739,212.473z"/>
				<path fill="#DFB156" d="M335.098,125.116c-49.035,10.13-89.703,43.128-110.358,87.357
					c42.774,7.734,79.512,32.806,102.688,67.673c17.468-25.303,27.707-55.981,27.707-89.056c0-23.946-5.371-46.634-14.961-66.94
					c-1.602,0.276-3.196,0.575-4.781,0.901C335.295,125.071,335.197,125.096,335.098,125.116z"/>
				<path fill="#4FA3CD" d="M225.022,345.746c13.197,27.939,34.397,51.35,60.64,67.292c0.236,0.144,0.468,0.293,0.705,0.435
					c0.55,0.332,1.109,0.644,1.662,0.966c15.477,9.006,32.619,15.464,50.868,18.764c4.708-10.083,8.383-20.748,10.884-31.853
					c2.483-11.084,3.797-22.608,3.797-34.44c0-32.081-9.633-61.909-26.151-86.763C303.945,314.159,267.395,338.445,225.022,345.746z
					"/>
			</g>
		</g>
	</g>
</g>
</svg>
